<mxfile host="app.diagrams.net" modified="2020-11-17T09:06:48.862Z" agent="5.0 (Windows NT 10.0; Win64; x64) AppleWebKit/537.36 (KHTML, like Gecko) Chrome/86.0.4240.198 Safari/537.36" version="13.9.9" etag="sykjRz5gxHbCEgH91wvz" type="github">
  <diagram id="dD6RDnshRVkeDjejvfDG" name="Page-1">
    <mxGraphModel dx="1038" dy="556" grid="1" gridSize="10" guides="1" tooltips="1" connect="1" arrows="1" fold="1" page="1" pageScale="1" pageWidth="850" pageHeight="1100" math="0" shadow="0">
      <root>
        <mxCell id="0" />
        <mxCell id="1" parent="0" />
        <mxCell id="ctK7kMqRd5sZVbqTwOhn-27" value="Multiplication&lt;br&gt;Table" style="rounded=0;whiteSpace=wrap;html=1;" vertex="1" parent="1">
          <mxGeometry x="150" y="590" width="80" height="360" as="geometry" />
        </mxCell>
        <mxCell id="ctK7kMqRd5sZVbqTwOhn-28" value="" style="endArrow=classic;html=1;entryX=-0.024;entryY=0.084;entryDx=0;entryDy=0;entryPerimeter=0;" edge="1" parent="1">
          <mxGeometry width="50" height="50" relative="1" as="geometry">
            <mxPoint x="41.2" y="629.66" as="sourcePoint" />
            <mxPoint x="149.99999999999983" y="629.9399999999999" as="targetPoint" />
          </mxGeometry>
        </mxCell>
        <mxCell id="ctK7kMqRd5sZVbqTwOhn-29" value="start: number&lt;br&gt;end: number" style="edgeLabel;html=1;align=center;verticalAlign=middle;resizable=0;points=[];" vertex="1" connectable="0" parent="ctK7kMqRd5sZVbqTwOhn-28">
          <mxGeometry x="-0.25" y="-1" relative="1" as="geometry">
            <mxPoint x="18.11" y="-18.769999999999996" as="offset" />
          </mxGeometry>
        </mxCell>
        <mxCell id="ctK7kMqRd5sZVbqTwOhn-30" value="" style="endArrow=classic;html=1;exitX=0;exitY=0.882;exitDx=0;exitDy=0;exitPerimeter=0;" edge="1" parent="1">
          <mxGeometry width="50" height="50" relative="1" as="geometry">
            <mxPoint x="150.0000000000001" y="919.9200000000001" as="sourcePoint" />
            <mxPoint x="40" y="920.04" as="targetPoint" />
          </mxGeometry>
        </mxCell>
        <mxCell id="ctK7kMqRd5sZVbqTwOhn-31" value="table: string" style="edgeLabel;html=1;align=center;verticalAlign=middle;resizable=0;points=[];" vertex="1" connectable="0" parent="ctK7kMqRd5sZVbqTwOhn-30">
          <mxGeometry x="-0.25" y="-1" relative="1" as="geometry">
            <mxPoint x="-8.8" y="-8.959999999999999" as="offset" />
          </mxGeometry>
        </mxCell>
        <mxCell id="ctK7kMqRd5sZVbqTwOhn-32" value="check&lt;br&gt;Input" style="rounded=0;whiteSpace=wrap;html=1;" vertex="1" parent="1">
          <mxGeometry x="350" y="590" width="100" height="170" as="geometry" />
        </mxCell>
        <mxCell id="ctK7kMqRd5sZVbqTwOhn-33" value="isInRange10" style="rounded=0;whiteSpace=wrap;html=1;" vertex="1" parent="1">
          <mxGeometry x="580" y="680" width="100" height="80" as="geometry" />
        </mxCell>
        <mxCell id="ctK7kMqRd5sZVbqTwOhn-36" value="" style="endArrow=classic;html=1;exitX=0;exitY=0.556;exitDx=0;exitDy=0;exitPerimeter=0;" edge="1" parent="1">
          <mxGeometry width="50" height="50" relative="1" as="geometry">
            <mxPoint x="350" y="730.04" as="sourcePoint" />
            <mxPoint x="229.9999999999999" y="730" as="targetPoint" />
            <Array as="points">
              <mxPoint x="290" y="730" />
            </Array>
          </mxGeometry>
        </mxCell>
        <mxCell id="ctK7kMqRd5sZVbqTwOhn-38" value="valid: boolean" style="edgeLabel;html=1;align=center;verticalAlign=middle;resizable=0;points=[];" vertex="1" connectable="0" parent="ctK7kMqRd5sZVbqTwOhn-36">
          <mxGeometry x="-0.25" y="-1" relative="1" as="geometry">
            <mxPoint x="-14.8" y="-9.009999999999998" as="offset" />
          </mxGeometry>
        </mxCell>
        <mxCell id="ctK7kMqRd5sZVbqTwOhn-44" value="isStart&lt;br&gt;SmallerThanEnd" style="rounded=0;whiteSpace=wrap;html=1;" vertex="1" parent="1">
          <mxGeometry x="580" y="590" width="100" height="80" as="geometry" />
        </mxCell>
        <mxCell id="ctK7kMqRd5sZVbqTwOhn-45" value="" style="endArrow=classic;html=1;entryX=0;entryY=0.371;entryDx=0;entryDy=0;entryPerimeter=0;exitX=1.008;exitY=0.173;exitDx=0;exitDy=0;exitPerimeter=0;" edge="1" parent="1" source="ctK7kMqRd5sZVbqTwOhn-32" target="ctK7kMqRd5sZVbqTwOhn-44">
          <mxGeometry width="50" height="50" relative="1" as="geometry">
            <mxPoint x="453" y="620" as="sourcePoint" />
            <mxPoint x="519.9999999999999" y="619.71" as="targetPoint" />
          </mxGeometry>
        </mxCell>
        <mxCell id="ctK7kMqRd5sZVbqTwOhn-46" value="" style="endArrow=classic;html=1;exitX=0;exitY=0.625;exitDx=0;exitDy=0;exitPerimeter=0;" edge="1" parent="1">
          <mxGeometry width="50" height="50" relative="1" as="geometry">
            <mxPoint x="580" y="660" as="sourcePoint" />
            <mxPoint x="450.9999999999999" y="660" as="targetPoint" />
          </mxGeometry>
        </mxCell>
        <mxCell id="ctK7kMqRd5sZVbqTwOhn-47" value="valid: boolean" style="edgeLabel;html=1;align=center;verticalAlign=middle;resizable=0;points=[];" vertex="1" connectable="0" parent="ctK7kMqRd5sZVbqTwOhn-46">
          <mxGeometry x="-0.25" y="-1" relative="1" as="geometry">
            <mxPoint x="-10.710000000000008" y="-9" as="offset" />
          </mxGeometry>
        </mxCell>
        <mxCell id="ctK7kMqRd5sZVbqTwOhn-51" value="" style="endArrow=classic;html=1;entryX=0.008;entryY=0.297;entryDx=0;entryDy=0;entryPerimeter=0;exitX=1.013;exitY=0.14;exitDx=0;exitDy=0;exitPerimeter=0;" edge="1" parent="1" source="ctK7kMqRd5sZVbqTwOhn-27" target="ctK7kMqRd5sZVbqTwOhn-32">
          <mxGeometry width="50" height="50" relative="1" as="geometry">
            <mxPoint x="230" y="610" as="sourcePoint" />
            <mxPoint x="299.9999999999999" y="617.01" as="targetPoint" />
          </mxGeometry>
        </mxCell>
        <mxCell id="ctK7kMqRd5sZVbqTwOhn-53" value="start: number&lt;br&gt;end: number" style="edgeLabel;html=1;align=center;verticalAlign=middle;resizable=0;points=[];" vertex="1" connectable="0" parent="1">
          <mxGeometry x="289.99729136948747" y="620.0049963407811" as="geometry" />
        </mxCell>
        <mxCell id="ctK7kMqRd5sZVbqTwOhn-54" value="start: number&lt;br&gt;end: number" style="edgeLabel;html=1;align=center;verticalAlign=middle;resizable=0;points=[];" vertex="1" connectable="0" parent="1">
          <mxGeometry x="519.9972913694875" y="600.0049963407811" as="geometry" />
        </mxCell>
        <mxCell id="ctK7kMqRd5sZVbqTwOhn-55" value="" style="endArrow=classic;html=1;entryX=0;entryY=0.371;entryDx=0;entryDy=0;entryPerimeter=0;exitX=1.008;exitY=0.173;exitDx=0;exitDy=0;exitPerimeter=0;" edge="1" parent="1">
          <mxGeometry width="50" height="50" relative="1" as="geometry">
            <mxPoint x="450.00000000000017" y="708.9899999999999" as="sourcePoint" />
            <mxPoint x="579.2" y="709.2600000000001" as="targetPoint" />
          </mxGeometry>
        </mxCell>
        <mxCell id="ctK7kMqRd5sZVbqTwOhn-56" value="" style="endArrow=classic;html=1;exitX=0;exitY=0.625;exitDx=0;exitDy=0;exitPerimeter=0;" edge="1" parent="1">
          <mxGeometry width="50" height="50" relative="1" as="geometry">
            <mxPoint x="579.2" y="749.58" as="sourcePoint" />
            <mxPoint x="450.2" y="749.58" as="targetPoint" />
          </mxGeometry>
        </mxCell>
        <mxCell id="ctK7kMqRd5sZVbqTwOhn-57" value="valid: boolean" style="edgeLabel;html=1;align=center;verticalAlign=middle;resizable=0;points=[];" vertex="1" connectable="0" parent="ctK7kMqRd5sZVbqTwOhn-56">
          <mxGeometry x="-0.25" y="-1" relative="1" as="geometry">
            <mxPoint x="-10.710000000000008" y="-9" as="offset" />
          </mxGeometry>
        </mxCell>
        <mxCell id="ctK7kMqRd5sZVbqTwOhn-58" value="start: number&lt;br&gt;end: number" style="edgeLabel;html=1;align=center;verticalAlign=middle;resizable=0;points=[];" vertex="1" connectable="0" parent="1">
          <mxGeometry x="519.1972913694875" y="689.5849963407811" as="geometry" />
        </mxCell>
        <mxCell id="ctK7kMqRd5sZVbqTwOhn-59" value="write&lt;br&gt;Multiplication&lt;br&gt;Table" style="rounded=0;whiteSpace=wrap;html=1;" vertex="1" parent="1">
          <mxGeometry x="350" y="780" width="100" height="170" as="geometry" />
        </mxCell>
        <mxCell id="ctK7kMqRd5sZVbqTwOhn-60" value="" style="endArrow=classic;html=1;exitX=0;exitY=0.556;exitDx=0;exitDy=0;exitPerimeter=0;" edge="1" parent="1">
          <mxGeometry width="50" height="50" relative="1" as="geometry">
            <mxPoint x="350" y="920.04" as="sourcePoint" />
            <mxPoint x="230" y="919.9999999999998" as="targetPoint" />
            <Array as="points">
              <mxPoint x="290" y="920" />
            </Array>
          </mxGeometry>
        </mxCell>
        <mxCell id="ctK7kMqRd5sZVbqTwOhn-61" value="table: string" style="edgeLabel;html=1;align=center;verticalAlign=middle;resizable=0;points=[];" vertex="1" connectable="0" parent="ctK7kMqRd5sZVbqTwOhn-60">
          <mxGeometry x="-0.25" y="-1" relative="1" as="geometry">
            <mxPoint x="-14.8" y="-9.009999999999998" as="offset" />
          </mxGeometry>
        </mxCell>
        <mxCell id="ctK7kMqRd5sZVbqTwOhn-62" value="" style="endArrow=classic;html=1;entryX=0.008;entryY=0.297;entryDx=0;entryDy=0;entryPerimeter=0;exitX=1.013;exitY=0.14;exitDx=0;exitDy=0;exitPerimeter=0;" edge="1" parent="1" target="ctK7kMqRd5sZVbqTwOhn-59">
          <mxGeometry width="50" height="50" relative="1" as="geometry">
            <mxPoint x="231.03999999999996" y="830.3999999999999" as="sourcePoint" />
            <mxPoint x="299.9999999999999" y="807.01" as="targetPoint" />
          </mxGeometry>
        </mxCell>
        <mxCell id="ctK7kMqRd5sZVbqTwOhn-63" value="start: number&lt;br&gt;end: number" style="edgeLabel;html=1;align=center;verticalAlign=middle;resizable=0;points=[];" vertex="1" connectable="0" parent="1">
          <mxGeometry x="289.99729136948747" y="810.0049963407811" as="geometry" />
        </mxCell>
      </root>
    </mxGraphModel>
  </diagram>
</mxfile>
